<mxfile host="app.diagrams.net" modified="2024-01-18T07:25:23.818Z" agent="Mozilla/5.0 (Macintosh; Intel Mac OS X 10_15_7) AppleWebKit/537.36 (KHTML, like Gecko) Chrome/120.0.0.0 Safari/537.36" version="22.1.21" etag="yzXbpok4XJEB12yZfz5h" type="github">
  <diagram name="페이지-1" id="vzHzxPEjcJ3rEbYzbi7D">
    <mxGraphModel>
      <root>
        <mxCell id="0" />
        <mxCell id="1" parent="0" />
      </root>
    </mxGraphModel>
  </diagram>
</mxfile>
